<?xml version="1.0" encoding="utf-8"?>
<svg viewBox="197.53 63.98 152.0992 111.4477" xmlns="http://www.w3.org/2000/svg">
  <path style="fill-opacity: 1; stroke-width: 0.264583; fill: rgb(46, 133, 85);" id="path763-8-1" d="m 121.67061,94.823092 c -7.94627,0.81478 -29.260589,-28.679149 -25.993077,-35.968207 3.267512,-7.289058 39.467167,-11.000837 44.145917,-4.52656 4.67875,6.474277 -10.20658,39.679986 -18.15284,40.494767 z" transform="matrix(0.9361508488655089, 0.8285937309265136, -0.7479281425476074, 0.9518595933914183, 179.21090698242188, -61.68188476562499)"/>
  <path style="fill-opacity: 1; stroke-width: 0.264583; fill: rgb(46, 133, 85);" id="path763-6-7-2" d="m 121.67061,94.823092 c -7.94627,0.81478 -29.260589,-28.679149 -25.993077,-35.968207 3.267512,-7.289058 39.467167,-11.000837 44.145917,-4.52656 4.67875,6.474277 -10.20658,39.679986 -18.15284,40.494767 z" transform="matrix(-0.9361508488655089, 0.8285937309265136, 0.7479281425476074, 0.9518595933914183, 367.9483184814453, -63.55136108398437)"/>
  <ellipse style="fill-opacity: 1; stroke: rgb(85, 91, 110); stroke-width: 2.87152; stroke-dasharray: none; stroke-opacity: 1; fill: rgb(246, 255, 248);" id="path224-6-2-6" cx="205.56677" cy="445.3295" rx="55.186733" ry="49.738838" transform="matrix(0.9999999999999999, 0, 0, 0.9999999999999999, 69.2615203857422, -319.6406555175781)"/>
  <path style="fill:#555b6e;fill-opacity:1;stroke-width:0.264583" id="path937-9-9" d="m 200.56949,147.08306 c -0.51566,0.91381 -9.00477,0.99737 -9.53833,0.0939 -0.53355,-0.90348 3.63864,-8.29705 4.68785,-8.30738 1.04922,-0.0103 5.36615,7.29967 4.85048,8.21349 z" transform="matrix(-1.1316977739334106, 0, 0.0000118973184726201, -0.7769500017166138, 499.4014434814453, 239.96121215820312)"/>
  <ellipse style="fill:#555b6e;fill-opacity:1;stroke:none;stroke-width:0.727262;stroke-dasharray:none;stroke-opacity:1" id="path1737-6-2-1-20-3" cx="184.43861" cy="433.67767" rx="2.5443161" ry="5.1205182" transform="matrix(0.9999999999999999, 0, 0, 0.9999999999999999, 69.2615203857422, -319.6406555175781)"/>
  <ellipse style="fill:#555b6e;fill-opacity:1;stroke:none;stroke-width:0.727262;stroke-dasharray:none;stroke-opacity:1" id="path1737-6-2-1-2-2-1" cx="229.61223" cy="433.67767" rx="2.5443161" ry="5.1205182" transform="matrix(0.9999999999999999, 0, 0, 0.9999999999999999, 69.2615203857422, -319.6406555175781)"/>
  <path style="fill:#555b6e;fill-opacity:1;stroke:#555b6e;stroke-width:0.570177;stroke-dasharray:none;stroke-opacity:1" d="m 208.55731,451.23208 v 4.34941" id="path10510-3-9" transform="matrix(0.9999999999999999, 0, 0, 0.9999999999999999, 69.2615203857422, -319.6406555175781)"/>
</svg>